<svg xmlns="http://www.w3.org/2000/svg" id="lightbowle" data-name="Layer 1" viewBox="0 0 881.82 1098.58">
    <defs>
        <filter id="f4" x="0" y="0" width="200%" height="200%">
            <feOffset result="offOut" in="SourceGraphic" dx="20" dy="20" />
            <feColorMatrix result="matrixOut" in="offOut" type="matrix"
                           values="0.2 0 0 0 0 0 0.2 0 0 0 0 0 0.2 0 0 0 0 0 1 0" />
            <feGaussianBlur result="blurOut" in="matrixOut" stdDeviation="10" />
            <feBlend in="SourceGraphic" in2="blurOut" mode="normal" />
        </filter>
        <style>
            #mainLogoBody {
            fill: white;
            }

            #starEf {
            fill: black;
            }
        </style>
    </defs>
    <title>on</title>
    <g id="mainLogoBody">
        <path class="cls-1"
              d="M595,1010.56q47.9,0,95.81,0c3.84,0,7.77-.19,11.51.49,9.74,1.79,16.13,7.38,16.83,17.66,0.62,9.07-6.89,16.85-17.31,18.41a70.5,70.5,0,0,1-10.37.41q-97,0-193.92,0c-1.15,0-2.31,0-3.46,0-15.55-.32-24.28-7.1-24.13-18.73s8.86-18.16,24.61-18.21C528.07,1010.48,561.54,1010.56,595,1010.56Z"
              transform="translate(-155.98 -22.85)"/>
        <path class="cls-1"
              d="M598.43,1084.46c20,0,43.49,0,67,0a96.92,96.92,0,0,1,10.39.27c11.18,1.22,18.84,8.79,18.81,18.32s-7.88,17.58-18.95,18.09c-12.29.57-24.64,0.1-37-.08q-58.33-.84-116.65-1.79c-2.31,0-4.63,0-6.93-.18-12.35-1.13-19.74-8.08-19.71-18.43s7.51-17.91,19.85-18.13c18.47-.33,37,0.31,55.44.68C578.78,1083.39,586.85,1083.93,598.43,1084.46Z"
              transform="translate(-155.98 -22.85)"/>
        <path class="cls-1"
              d="M596.35,964.43c-31.21,1.81-62.37,3.31-93.54,4.26-23.85.73-29.7-4.33-33.84-27.94-1.46-8.33-3-16.7-3.64-25.12-2.78-38.16-25.92-65-50.47-90.88-29.93-31.58-60.91-62.22-84.92-98.88-40.41-61.69-64.39-128.73-62.61-203.09,1.81-75.62,31.48-141.1,77.74-199.77,52.77-66.93,123.38-103.55,206-116.7,120.79-19.24,216.73,27.13,294.26,117.52,42.76,49.85,69.26,107.44,75.41,173,7.61,81-11,156.31-57,223.63C834.3,763.37,800.89,803.29,762.81,839c-28,26.25-37.27,60.32-39.94,96.81-1.66,22.69-6.78,28.51-29.51,28.58C661,964.51,628.68,964.43,596.35,964.43ZM677,928c7.74,0.1,10.13-2.46,11.15-10.33,4.9-37.79,16.68-73,44.88-100.24,35.86-34.63,68.67-71.94,97.14-112.71,44.48-63.7,63.35-134.78,53.36-212.15-8.39-65-39.14-119.17-84.56-165.71-49.74-51-108.82-84.5-180.59-87.5-99.28-4.16-183.6,30.3-246.62,109.22-40.06,50.17-65.38,106.9-67.57,172.16-2.33,69.58,20.58,131.48,58.69,188.58,24.76,37.1,57,67.66,87.43,99.78,30.1,31.8,50.19,68,52.64,112.47,0.48,8.8,4.36,10.52,12.4,10.37,26.55-.48,53.11-0.18,79.67-0.18C595,930.45,649.63,927.65,677,928Z"
              transform="translate(-155.98 -22.85)"/>
        <path class="cls-1"
              d="M665.78,548.47c-23.85,7.68-45,3.48-64.8-9.22-2.28-1.47-4.54-2.81-7.47-1.22-21.52,11.71-44.58,13.51-68.25,9.67-2.53,4.84.66,8,2,11.15,35.86,86.59,51.74,177,51.24,270.42-0.07,13.08-.78,26.18-1.63,39.23-0.84,12.9-8.44,20.58-19.19,20.15-10.59-.42-17.57-8.65-17.4-21.77,0.22-16.54,1.77-33.08,1.62-49.62C541,716.79,519.68,621.09,474,531.19a102.42,102.42,0,0,1-4.37-9.42c-3.16-8.18-2.91-16,3.92-22.32s14.73-6.25,22.53-2.29c11.35,5.76,22.72,11.2,35.24,14.14,17.9,4.21,34.53,1.56,49.7-8.55,11.89-7.92,23-7.9,33.84,1.38,15.63,13.44,32.3,14.24,50.45,5.54a239,239,0,0,1,28.94-11.53c8.69-2.84,17.85-3.44,24.46,4.68,6.81,8.36,5,17.29,0,25.84-33.23,56.13-52.44,117.07-62.07,181.27-7.1,47.35-8.65,95-8.1,142.82,0.06,5.36.53,10.78-1.52,16-3.13,8-8.65,12.77-17.45,12.56-8.28-.2-13.55-4.93-16.25-12.52a24.85,24.85,0,0,1-1.56-7.86c-1-88.55,4.56-176.29,34.06-260.84C651.71,583.15,658.73,566.6,665.78,548.47Z"
              transform="translate(-155.98 -22.85)"/>
    </g>
    <g id="starEf">
        <path class="cls-2"
              d="M804.18,183c-12.89,0-22-13.44-15.41-25.54,12.14-22.25,25.58-43.83,39.42-65.08,5.46-8.39,14.84-9.86,23.58-4.57,8.48,5.13,10.66,14.2,6.47,22.29a623.52,623.52,0,0,1-40,66C815.1,180.75,809.89,182.85,804.18,183Z"
              transform="translate(-155.98 -22.85)"/>
        <path class="cls-2"
              d="M960.43,336c-8.12-.08-13.37-3.51-16.6-9.83-3.09-6-2-11.94,1.48-17.49,2.76-4.36,7-7,11.34-9.57,17.18-10.17,34.23-20.57,51.63-30.36,10.89-6.12,21.29-4,26.63,4.36,5.7,8.93,2.94,19.84-7.86,26.54-18.26,11.34-36.91,22.06-55.44,33C967.93,334.8,963.93,336.19,960.43,336Z"
              transform="translate(-155.98 -22.85)"/>
        <path class="cls-2"
              d="M613.83,74.87c0,10,.35,20-0.1,30-0.57,12.67-8.41,20.75-18.92,20.38-10-.35-17.43-8.26-17.69-20.44q-0.64-30.53,0-61.08c0.27-13.1,7.65-20.87,18.34-20.84s17.8,7.8,18.31,20.9C614.16,54.11,613.84,64.49,613.83,74.87Z"
              transform="translate(-155.98 -22.85)"/>
        <path class="cls-2"
              d="M401.74,162.64c-0.1,8.24-3.74,13.86-10.77,16.8-7.63,3.2-15.36,1.49-19.84-4.9a383.29,383.29,0,0,1-36.74-63.88c-3.53-7.91-.61-16.28,7.67-20.86,7.52-4.16,16-3.84,21.05,3.06,15,20.49,27.3,42.7,38.08,65.71C401.82,159.9,401.62,161.6,401.74,162.64Z"
              transform="translate(-155.98 -22.85)"/>
        <path class="cls-2"
              d="M244.7,319.4c-0.22,13-13.49,21.64-25.69,15a377.57,377.57,0,0,1-56.45-37.71c-7.25-5.88-8.82-14.65-3.19-22.86,5.85-8.53,14.85-10.79,23.33-5.57,18.95,11.68,37.27,24.38,55.62,37C243,308.4,244.88,313.63,244.7,319.4Z"
              transform="translate(-155.98 -22.85)"/>
        <path class="cls-1"
              d="M350.73,534.09c-0.06-12,6.69-20.42,16.83-21.11,10.44-.71,18.54,6.4,19.65,18.34,2.39,25.73,6.45,51,15,75.58,3.72,10.7-1,20.63-10,24-9.22,3.42-18.59-.64-23.46-11.41-9.77-21.63-13.17-44.89-16.15-68.19C351.87,545.56,351.35,539.82,350.73,534.09Z"
              transform="translate(-155.98 -22.85)"/>
        <path class="cls-1"
              d="M578.12,280.21h4.54c15.68-.07,24.64,6.34,24.94,17.85,0.3,11.67-8.38,18.88-23.88,19a159.83,159.83,0,0,0-36.57,4.47c-57.44,13.93-101.48,46.57-133,96.25-3.86,6.09-6,13.29-9,19.91-4.11,8.89-10.57,14.38-20.92,12.42-9.36-1.77-14.46-10.12-13.55-21.14,0.72-8.66,4.19-16.5,8.54-23.73C421,335.82,481,293.41,562,282.1,568.07,281.24,574.2,280.66,578.12,280.21Z"
              transform="translate(-155.98 -22.85)"/>
    </g>
</svg>